# MagicaVoxel @ Ephtracy

# group
o 

# material
mtllib pig.mtl
usemtl palette

# normals
vn -1 0 0
vn 1 0 0
vn 0 0 1
vn 0 0 -1
vn 0 -1 0
vn 0 1 0

# texcoords
vt 0.369141 0.5
vt 0.958984 0.5
vt 0.962891 0.5
vt 0.966797 0.5
vt 0.994141 0.5

# verts
v -0.6 0 -0.1
v -0.6 0 -0.2
v -0.6 0 -0.4
v -0.6 0.1 -0.1
v -0.6 0.1 -0.2
v -0.6 0.2 -0.2
v -0.6 0.2 -0.4
v -0.6 0.7 -0.1
v -0.6 0.7 -0.3
v -0.6 0.9 -0.1
v -0.6 0.9 -0.3
v -0.5 0 0.4
v -0.5 0 0.3
v -0.5 0 -0.1
v -0.5 0.1 0.4
v -0.5 0.1 0.3
v -0.5 0.1 -0.1
v -0.5 0.1 -0.2
v -0.5 0.2 0.3
v -0.5 0.2 0.2
v -0.5 0.2 -0.2
v -0.5 0.2 -0.4
v -0.5 0.5 0.2
v -0.5 0.5 -0.4
v -0.4 0.5 0.1
v -0.4 0.5 -0.3
v -0.4 0.7 0.1
v -0.4 0.7 0
v -0.4 0.8 0.1
v -0.4 0.8 0
v -0.4 0.8 -0.1
v -0.4 0.8 -0.3
v -0.4 0.9 0.1
v -0.4 0.9 0
v -0.4 0.9 -0.1
v -0.4 0.9 -0.3
v -0.4 1 0.1
v -0.4 1 -0.3
v -0.3 0.5 0.2
v -0.3 0.5 0.1
v -0.3 0.7 0.2
v -0.3 0.7 0.1
v -5.96046e-008 0 0.4
v -5.96046e-008 0 0.3
v -5.96046e-008 0 0.2
v -5.96046e-008 0.1 0.4
v -5.96046e-008 0.1 0.3
v -5.96046e-008 0.2 0.3
v -5.96046e-008 0.2 0.2
v 0.2 0.7 -0.1
v 0.2 0.7 -0.3
v 0.2 0.8 -0.1
v 0.2 0.8 -0.3
v -0.5 0.7 -0.1
v -0.5 0.7 -0.3
v -0.5 0.8 -0.1
v -0.5 0.8 -0.3
v -0.3 0 0.4
v -0.3 0 0.3
v -0.3 0 0.2
v -0.3 0.1 0.4
v -0.3 0.1 0.3
v -0.3 0.2 0.3
v -0.3 0.2 0.2
v -5.96046e-008 0.5 0.2
v -5.96046e-008 0.5 0.1
v -5.96046e-008 0.7 0.2
v -5.96046e-008 0.7 0.1
v 0.1 0.5 0.1
v 0.1 0.5 -0.3
v 0.1 0.7 0.1
v 0.1 0.7 0
v 0.1 0.8 0.1
v 0.1 0.8 0
v 0.1 0.8 -0.1
v 0.1 0.8 -0.3
v 0.1 0.9 0.1
v 0.1 0.9 0
v 0.1 0.9 -0.1
v 0.1 0.9 -0.3
v 0.1 1 0.1
v 0.1 1 -0.3
v 0.2 0 0.4
v 0.2 0 0.3
v 0.2 0 -0.1
v 0.2 0.1 0.4
v 0.2 0.1 0.3
v 0.2 0.1 -0.1
v 0.2 0.1 -0.2
v 0.2 0.2 0.3
v 0.2 0.2 0.2
v 0.2 0.2 -0.2
v 0.2 0.2 -0.4
v 0.2 0.5 0.2
v 0.2 0.5 -0.4
v 0.3 0 -0.1
v 0.3 0 -0.2
v 0.3 0 -0.4
v 0.3 0.1 -0.1
v 0.3 0.1 -0.2
v 0.3 0.2 -0.2
v 0.3 0.2 -0.4
v 0.3 0.7 -0.1
v 0.3 0.7 -0.3
v 0.3 0.9 -0.1
v 0.3 0.9 -0.3
v -0.5 0 0.4
v -0.5 0.1 0.4
v -0.3 0 0.4
v -0.3 0.1 0.4
v -5.96046e-008 0 0.4
v -5.96046e-008 0.1 0.4
v 0.2 0 0.4
v 0.2 0.1 0.4
v -0.5 0.1 0.3
v -0.5 0.2 0.3
v -0.3 0.1 0.3
v -0.3 0.2 0.3
v -5.96046e-008 0.1 0.3
v -5.96046e-008 0.2 0.3
v 0.2 0.1 0.3
v 0.2 0.2 0.3
v -0.5 0.2 0.2
v -0.5 0.5 0.2
v -0.3 0 0.2
v -0.3 0.2 0.2
v -0.3 0.5 0.2
v -0.3 0.7 0.2
v -5.96046e-008 0 0.2
v -5.96046e-008 0.2 0.2
v -5.96046e-008 0.5 0.2
v -5.96046e-008 0.7 0.2
v 0.2 0.2 0.2
v 0.2 0.5 0.2
v -0.4 0.5 0.1
v -0.4 0.7 0.1
v -0.4 0.8 0.1
v -0.4 0.9 0.1
v -0.4 1 0.1
v -0.3 0.5 0.1
v -0.3 0.7 0.1
v -0.3 0.8 0.1
v -0.3 0.9 0.1
v -5.96046e-008 0.5 0.1
v -5.96046e-008 0.7 0.1
v -5.96046e-008 0.8 0.1
v -5.96046e-008 0.9 0.1
v 0.1 0.5 0.1
v 0.1 0.7 0.1
v 0.1 0.8 0.1
v 0.1 0.9 0.1
v 0.1 1 0.1
v -0.6 0 -0.1
v -0.6 0.1 -0.1
v -0.6 0.7 -0.1
v -0.6 0.9 -0.1
v -0.5 0 -0.1
v -0.5 0.1 -0.1
v -0.5 0.7 -0.1
v -0.5 0.8 -0.1
v -0.4 0.8 -0.1
v -0.4 0.9 -0.1
v 0.1 0.8 -0.1
v 0.1 0.9 -0.1
v 0.2 0 -0.1
v 0.2 0.1 -0.1
v 0.2 0.7 -0.1
v 0.2 0.8 -0.1
v 0.3 0 -0.1
v 0.3 0.1 -0.1
v 0.3 0.7 -0.1
v 0.3 0.9 -0.1
v -0.6 0.1 -0.2
v -0.6 0.2 -0.2
v -0.5 0.1 -0.2
v -0.5 0.2 -0.2
v 0.2 0.1 -0.2
v 0.2 0.2 -0.2
v 0.3 0.1 -0.2
v 0.3 0.2 -0.2
v -0.6 0.7 -0.3
v -0.6 0.9 -0.3
v -0.5 0.7 -0.3
v -0.5 0.8 -0.3
v -0.4 0.5 -0.3
v -0.4 0.8 -0.3
v -0.4 0.9 -0.3
v -0.4 1 -0.3
v 0.1 0.5 -0.3
v 0.1 0.8 -0.3
v 0.1 0.9 -0.3
v 0.1 1 -0.3
v 0.2 0.7 -0.3
v 0.2 0.8 -0.3
v 0.3 0.7 -0.3
v 0.3 0.9 -0.3
v -0.6 0 -0.4
v -0.6 0.2 -0.4
v -0.5 0.2 -0.4
v -0.5 0.5 -0.4
v 0.2 0.2 -0.4
v 0.2 0.5 -0.4
v 0.3 0 -0.4
v 0.3 0.2 -0.4
v -0.5 0 0.4
v -0.3 0 0.4
v -5.96046e-008 0 0.4
v 0.2 0 0.4
v -0.5 0 0.3
v -0.3 0 0.3
v -5.96046e-008 0 0.3
v 0.2 0 0.3
v -0.3 0 0.2
v -5.96046e-008 0 0.2
v -0.6 0 -0.1
v -0.5 0 -0.1
v 0.2 0 -0.1
v 0.3 0 -0.1
v -0.6 0 -0.2
v -0.5 0 -0.2
v 0.2 0 -0.2
v 0.3 0 -0.2
v -0.6 0 -0.4
v 0.3 0 -0.4
v -0.6 0.7 -0.1
v -0.5 0.7 -0.1
v 0.2 0.7 -0.1
v 0.3 0.7 -0.1
v -0.6 0.7 -0.3
v -0.5 0.7 -0.3
v 0.2 0.7 -0.3
v 0.3 0.7 -0.3
v -0.5 0.8 -0.1
v -0.4 0.8 -0.1
v 0.1 0.8 -0.1
v 0.2 0.8 -0.1
v -0.5 0.8 -0.3
v -0.4 0.8 -0.3
v 0.1 0.8 -0.3
v 0.2 0.8 -0.3
v -0.5 0.1 0.4
v -0.3 0.1 0.4
v -5.96046e-008 0.1 0.4
v 0.2 0.1 0.4
v -0.5 0.1 0.3
v -0.3 0.1 0.3
v -5.96046e-008 0.1 0.3
v 0.2 0.1 0.3
v -0.6 0.1 -0.1
v -0.5 0.1 -0.1
v 0.2 0.1 -0.1
v 0.3 0.1 -0.1
v -0.6 0.1 -0.2
v -0.5 0.1 -0.2
v 0.2 0.1 -0.2
v 0.3 0.1 -0.2
v -0.5 0.2 0.3
v -0.3 0.2 0.3
v -5.96046e-008 0.2 0.3
v 0.2 0.2 0.3
v -0.5 0.2 0.2
v -0.3 0.2 0.2
v -5.96046e-008 0.2 0.2
v 0.2 0.2 0.2
v -0.6 0.2 -0.2
v -0.5 0.2 -0.2
v 0.2 0.2 -0.2
v 0.3 0.2 -0.2
v -0.6 0.2 -0.4
v -0.5 0.2 -0.4
v 0.2 0.2 -0.4
v 0.3 0.2 -0.4
v -0.5 0.5 0.2
v -0.3 0.5 0.2
v -5.96046e-008 0.5 0.2
v 0.2 0.5 0.2
v -0.4 0.5 0.1
v -0.3 0.5 0.1
v -5.96046e-008 0.5 0.1
v 0.1 0.5 0.1
v -0.4 0.5 -0.3
v 0.1 0.5 -0.3
v -0.5 0.5 -0.4
v 0.2 0.5 -0.4
v -0.3 0.7 0.2
v -5.96046e-008 0.7 0.2
v -0.3 0.7 0.1
v -5.96046e-008 0.7 0.1
v -0.6 0.9 -0.1
v -0.4 0.9 -0.1
v 0.1 0.9 -0.1
v 0.3 0.9 -0.1
v -0.6 0.9 -0.3
v -0.4 0.9 -0.3
v 0.1 0.9 -0.3
v 0.3 0.9 -0.3
v -0.4 1 0.1
v 0.1 1 0.1
v -0.4 1 -0.3
v 0.1 1 -0.3

# faces
f 4/2/1 2/2/1 1/2/1
f 5/3/1 3/3/1 2/3/1
f 5/2/1 2/2/1 4/2/1
f 6/3/1 3/3/1 5/3/1
f 7/3/1 3/3/1 6/3/1
f 10/2/1 9/2/1 8/2/1
f 11/2/1 9/2/1 10/2/1
f 15/2/1 13/2/1 12/2/1
f 16/3/1 14/3/1 13/3/1
f 16/2/1 13/2/1 15/2/1
f 17/3/1 14/3/1 16/3/1
f 19/3/1 18/3/1 17/3/1
f 19/3/1 17/3/1 16/3/1
f 20/3/1 18/3/1 19/3/1
f 21/3/1 18/3/1 20/3/1
f 23/3/1 22/3/1 21/3/1
f 23/3/1 21/3/1 20/3/1
f 24/3/1 22/3/1 23/3/1
f 27/3/1 26/3/1 25/3/1
f 28/3/1 26/3/1 27/3/1
f 29/5/1 28/5/1 27/5/1
f 30/3/1 26/3/1 28/3/1
f 30/5/1 28/5/1 29/5/1
f 31/3/1 26/3/1 30/3/1
f 32/3/1 26/3/1 31/3/1
f 33/4/1 30/4/1 29/4/1
f 34/3/1 31/3/1 30/3/1
f 34/4/1 30/4/1 33/4/1
f 35/3/1 31/3/1 34/3/1
f 37/3/1 34/3/1 33/3/1
f 37/3/1 36/3/1 35/3/1
f 37/3/1 35/3/1 34/3/1
f 38/3/1 36/3/1 37/3/1
f 41/2/1 40/2/1 39/2/1
f 42/2/1 40/2/1 41/2/1
f 46/2/1 44/2/1 43/2/1
f 47/3/1 45/3/1 44/3/1
f 47/2/1 44/2/1 46/2/1
f 48/3/1 45/3/1 47/3/1
f 49/3/1 45/3/1 48/3/1
f 52/2/1 51/2/1 50/2/1
f 53/2/1 51/2/1 52/2/1
f 54/2/2 55/2/2 56/2/2
f 56/2/2 55/2/2 57/2/2
f 58/2/2 59/2/2 61/2/2
f 59/3/2 60/3/2 62/3/2
f 61/2/2 59/2/2 62/2/2
f 62/3/2 60/3/2 63/3/2
f 63/3/2 60/3/2 64/3/2
f 65/2/2 66/2/2 67/2/2
f 67/2/2 66/2/2 68/2/2
f 69/3/2 70/3/2 71/3/2
f 71/3/2 70/3/2 72/3/2
f 71/5/2 72/5/2 73/5/2
f 72/3/2 70/3/2 74/3/2
f 73/5/2 72/5/2 74/5/2
f 74/3/2 70/3/2 75/3/2
f 75/3/2 70/3/2 76/3/2
f 73/4/2 74/4/2 77/4/2
f 74/3/2 75/3/2 78/3/2
f 77/4/2 74/4/2 78/4/2
f 78/3/2 75/3/2 79/3/2
f 77/3/2 78/3/2 81/3/2
f 79/3/2 80/3/2 81/3/2
f 78/3/2 79/3/2 81/3/2
f 81/3/2 80/3/2 82/3/2
f 83/2/2 84/2/2 86/2/2
f 84/3/2 85/3/2 87/3/2
f 86/2/2 84/2/2 87/2/2
f 87/3/2 85/3/2 88/3/2
f 88/3/2 89/3/2 90/3/2
f 87/3/2 88/3/2 90/3/2
f 90/3/2 89/3/2 91/3/2
f 91/3/2 89/3/2 92/3/2
f 92/3/2 93/3/2 94/3/2
f 91/3/2 92/3/2 94/3/2
f 94/3/2 93/3/2 95/3/2
f 96/2/2 97/2/2 99/2/2
f 97/3/2 98/3/2 100/3/2
f 99/2/2 97/2/2 100/2/2
f 100/3/2 98/3/2 101/3/2
f 101/3/2 98/3/2 102/3/2
f 103/2/2 104/2/2 105/2/2
f 105/2/2 104/2/2 106/2/2
f 109/2/3 108/2/3 107/2/3
f 110/2/3 108/2/3 109/2/3
f 113/2/3 112/2/3 111/2/3
f 114/2/3 112/2/3 113/2/3
f 117/3/3 116/3/3 115/3/3
f 118/3/3 116/3/3 117/3/3
f 121/3/3 120/3/3 119/3/3
f 122/3/3 120/3/3 121/3/3
f 126/3/3 124/3/3 123/3/3
f 127/3/3 124/3/3 126/3/3
f 129/3/3 126/3/3 125/3/3
f 129/3/3 127/3/3 126/3/3
f 130/3/3 127/3/3 129/3/3
f 131/2/3 128/2/3 127/2/3
f 131/3/3 127/3/3 130/3/3
f 132/2/3 128/2/3 131/2/3
f 133/3/3 131/3/3 130/3/3
f 134/3/3 131/3/3 133/3/3
f 140/3/3 136/3/3 135/3/3
f 141/5/3 137/5/3 136/5/3
f 141/3/3 136/3/3 140/3/3
f 142/4/3 138/4/3 137/4/3
f 142/5/3 137/5/3 141/5/3
f 143/3/3 139/3/3 138/3/3
f 143/4/3 138/4/3 142/4/3
f 145/3/3 142/3/3 141/3/3
f 145/3/3 143/3/3 142/3/3
f 146/3/3 143/3/3 145/3/3
f 147/3/3 139/3/3 143/3/3
f 147/3/3 143/3/3 146/3/3
f 148/3/3 145/3/3 144/3/3
f 149/5/3 146/5/3 145/5/3
f 149/3/3 145/3/3 148/3/3
f 150/4/3 147/4/3 146/4/3
f 150/5/3 146/5/3 149/5/3
f 151/3/3 139/3/3 147/3/3
f 151/4/3 147/4/3 150/4/3
f 152/3/3 139/3/3 151/3/3
f 157/2/3 154/2/3 153/2/3
f 158/2/3 154/2/3 157/2/3
f 159/2/3 156/2/3 155/2/3
f 160/2/3 156/2/3 159/2/3
f 161/2/3 156/2/3 160/2/3
f 162/2/3 156/2/3 161/2/3
f 168/2/3 164/2/3 163/2/3
f 169/2/3 166/2/3 165/2/3
f 170/2/3 166/2/3 169/2/3
f 171/2/3 168/2/3 167/2/3
f 172/2/3 164/2/3 168/2/3
f 172/2/3 168/2/3 171/2/3
f 175/3/3 174/3/3 173/3/3
f 176/3/3 174/3/3 175/3/3
f 179/3/3 178/3/3 177/3/3
f 180/3/3 178/3/3 179/3/3
f 181/2/4 182/2/4 183/2/4
f 183/2/4 182/2/4 184/2/4
f 184/2/4 182/2/4 186/2/4
f 186/2/4 182/2/4 187/2/4
f 185/3/4 186/3/4 189/3/4
f 187/3/4 188/3/4 189/3/4
f 186/3/4 187/3/4 189/3/4
f 189/3/4 188/3/4 190/3/4
f 190/3/4 188/3/4 191/3/4
f 191/3/4 188/3/4 192/3/4
f 190/2/4 191/2/4 194/2/4
f 193/2/4 194/2/4 195/2/4
f 194/2/4 191/2/4 196/2/4
f 195/2/4 194/2/4 196/2/4
f 197/3/4 198/3/4 199/3/4
f 197/3/4 199/3/4 201/3/4
f 199/3/4 200/3/4 201/3/4
f 201/3/4 200/3/4 202/3/4
f 197/3/4 201/3/4 203/3/4
f 203/3/4 201/3/4 204/3/4
f 209/2/5 206/2/5 205/2/5
f 210/2/5 206/2/5 209/2/5
f 211/2/5 208/2/5 207/2/5
f 212/2/5 208/2/5 211/2/5
f 213/3/5 210/3/5 209/3/5
f 214/3/5 212/3/5 211/3/5
f 216/3/5 213/3/5 209/3/5
f 216/3/5 214/3/5 213/3/5
f 217/3/5 212/3/5 214/3/5
f 217/3/5 214/3/5 216/3/5
f 219/2/5 216/2/5 215/2/5
f 220/3/5 217/3/5 216/3/5
f 220/2/5 216/2/5 219/2/5
f 221/2/5 218/2/5 217/2/5
f 221/3/5 217/3/5 220/3/5
f 222/2/5 218/2/5 221/2/5
f 223/3/5 220/3/5 219/3/5
f 223/3/5 221/3/5 220/3/5
f 223/3/5 222/3/5 221/3/5
f 224/3/5 222/3/5 223/3/5
f 229/2/5 226/2/5 225/2/5
f 230/2/5 226/2/5 229/2/5
f 231/2/5 228/2/5 227/2/5
f 232/2/5 228/2/5 231/2/5
f 237/2/5 234/2/5 233/2/5
f 238/2/5 234/2/5 237/2/5
f 239/2/5 236/2/5 235/2/5
f 240/2/5 236/2/5 239/2/5
f 241/2/6 242/2/6 245/2/6
f 245/2/6 242/2/6 246/2/6
f 243/2/6 244/2/6 247/2/6
f 247/2/6 244/2/6 248/2/6
f 249/2/6 250/2/6 253/2/6
f 253/2/6 250/2/6 254/2/6
f 251/2/6 252/2/6 255/2/6
f 255/2/6 252/2/6 256/2/6
f 257/3/6 258/3/6 261/3/6
f 261/3/6 258/3/6 262/3/6
f 259/3/6 260/3/6 263/3/6
f 263/3/6 260/3/6 264/3/6
f 265/3/6 266/3/6 269/3/6
f 269/3/6 266/3/6 270/3/6
f 267/3/6 268/3/6 271/3/6
f 271/3/6 268/3/6 272/3/6
f 273/3/6 274/3/6 277/3/6
f 277/3/6 274/3/6 278/3/6
f 275/3/6 276/3/6 279/3/6
f 279/3/6 276/3/6 280/3/6
f 273/3/6 277/3/6 281/3/6
f 280/3/6 276/3/6 282/3/6
f 273/3/6 281/3/6 283/3/6
f 281/3/6 282/3/6 283/3/6
f 282/3/6 276/3/6 284/3/6
f 283/3/6 282/3/6 284/3/6
f 285/2/6 286/2/6 287/2/6
f 287/2/6 286/2/6 288/2/6
f 289/2/6 290/2/6 293/2/6
f 293/2/6 290/2/6 294/2/6
f 291/2/6 292/2/6 295/2/6
f 295/2/6 292/2/6 296/2/6
f 297/3/6 298/3/6 299/3/6
f 299/3/6 298/3/6 300/3/6
